# xmcd
#
# Track frame offsets:
#	150
#	12323
#	29546
#	40142
#	54390
#	67810
#	79600
#	95062
#	109959
#	132178
#
# Disc length: 1991 seconds
#
# Revision: 1
# Processed by: cddbd v1.5.2PL0 Copyright (c) Steve Scherf et al.
# Submitted via: audiograbber 1.83.01
#
DISCID=7d07c50a
DTITLE=Genuine Cowhide - Modern Sounds in Hillbilly and Western
DYEAR=2005
DGENRE=Country
TTITLE0=Hangin' Tree
TTITLE1=Just Another Honky Tonk
TTITLE2=Big Corral
TTITLE3=Cowboy
TTITLE4=Blood on the Saddle
TTITLE5=Cactus Annie
TTITLE6=Tumbleweed
TTITLE7=My Best Just Ain't No Good
TTITLE8=Llano Estacado
TTITLE9=Stampede at Red Desert
EXTD=
EXTT0=
EXTT1=
EXTT2=
EXTT3=
EXTT4=
EXTT5=
EXTT6=
EXTT7=
EXTT8=
EXTT9=
PLAYORDER=
